<?xml version="1.0" standalone="no"?>
<!DOCTYPE svg PUBLIC "-//W3C//DTD SVG 20010904//EN"
 "http://www.w3.org/TR/2001/REC-SVG-20010904/DTD/svg10.dtd">
<svg version="1.0" xmlns="http://www.w3.org/2000/svg"
 width="792.000000pt" height="792.000000pt" viewBox="0 0 792.000000 792.000000"
 preserveAspectRatio="xMidYMid meet">
<metadata>
Created by potrace 1.11, written by Peter Selinger 2001-2013
</metadata>
<g transform="translate(0.000000,792.000000) scale(0.100000,-0.100000)"
fill="#000000" stroke="none">
<path d="M3688 6009 c-16 -9 -18 -27 -18 -143 0 -141 -2 -146 -48 -146 -9 0
-29 -6 -43 -14 -16 -8 -32 -10 -41 -5 -10 5 -15 4 -15 -5 0 -13 24 -13 87 0
44 10 52 11 68 13 9 1 12 37 12 146 l0 145 225 0 225 0 -1 -135 c0 -82 -4
-137 -11 -141 -16 -10 14 -25 36 -18 13 4 16 3 11 -6 -5 -8 -4 -11 2 -7 5 3
36 0 69 -8 32 -7 61 -11 64 -9 8 9 -24 23 -92 40 l-68 16 0 134 c0 122 -2 134
-19 144 -26 13 -420 13 -443 -1z"/>
<path d="M3220 5847 c-96 -51 -181 -96 -188 -100 -17 -11 -11 -27 55 -148 l55
-102 -53 -48 c-30 -27 -60 -48 -68 -49 -7 0 -51 20 -97 45 -45 25 -85 45 -87
45 -12 0 -46 -38 -39 -45 4 -5 1 -5 -5 -1 -10 6 -10 13 2 36 19 37 19 41 -1
33 -14 -5 -81 -101 -197 -286 -21 -31 -37 -64 -37 -71 0 -8 44 -42 98 -77 53
-34 98 -63 99 -64 2 -1 -11 -40 -29 -88 l-31 -87 -122 0 -122 0 -7 -46 c-3
-26 -6 -129 -6 -230 l0 -184 103 0 c56 0 107 -4 113 -8 10 -6 17 -35 41 -164
5 -29 -14 -45 -121 -98 -26 -13 -50 -30 -53 -37 -3 -7 12 -43 33 -80 173 -311
174 -313 197 -313 12 0 53 18 91 39 l69 39 68 -71 c38 -40 68 -78 69 -85 0 -8
-16 -41 -35 -73 -19 -33 -35 -68 -35 -78 0 -19 28 -39 170 -121 41 -24 95 -56
120 -71 25 -15 57 -32 72 -38 31 -12 34 -8 88 79 l35 57 45 -14 c25 -7 72 -19
105 -26 l60 -13 3 -92 3 -92 229 0 230 0 0 83 c0 45 4 87 8 93 6 9 93 32 142
37 9 1 29 -24 50 -65 19 -37 43 -69 53 -72 10 -2 57 16 105 41 327 170 301
153 292 182 -4 15 -22 53 -40 85 l-33 58 65 65 65 65 39 -22 c21 -11 57 -32
79 -45 22 -14 45 -25 50 -25 6 0 37 41 70 92 33 50 88 134 123 187 34 52 62
98 62 102 0 3 -36 30 -81 59 -44 29 -82 57 -85 64 -2 6 7 52 20 101 l24 90
111 -2 c107 -2 111 -2 116 20 3 12 4 117 3 232 -3 178 -5 210 -18 211 -8 1
-61 2 -116 3 l-102 1 -11 43 c-6 23 -17 63 -25 89 l-15 47 105 58 c57 32 104
64 104 71 0 7 -37 79 -81 160 -45 81 -91 164 -102 185 -21 40 -44 57 -56 40
-14 -21 -186 -112 -206 -109 -19 3 -125 106 -125 121 0 6 27 55 60 109 33 54
60 106 60 115 0 10 -17 27 -37 38 -21 12 -54 30 -73 41 -19 10 -82 47 -139 81
-57 33 -115 64 -130 67 l-26 6 21 -19 c14 -11 20 -28 19 -46 -2 -24 1 -28 17
-23 52 17 63 18 48 6 -12 -10 -11 -11 8 -7 17 4 23 1 21 -11 -3 -31 1 -40 18
-46 15 -6 15 -5 -1 13 -26 29 -3 35 39 10 28 -17 33 -24 23 -31 -10 -7 -9 -8
5 -4 19 6 49 -3 43 -13 -3 -4 5 -8 16 -8 11 -1 28 -8 37 -16 9 -8 24 -17 34
-20 9 -4 17 -11 17 -17 0 -6 4 -8 10 -5 16 10 -1 -29 -19 -43 -9 -7 -15 -15
-13 -17 1 -3 2 -11 2 -17 -1 -7 -7 -2 -14 11 l-13 24 -13 -34 c-7 -19 -13 -42
-13 -51 0 -10 -3 -15 -8 -13 -4 3 -6 14 -4 25 3 17 -2 20 -37 20 -83 0 -665
-32 -722 -39 -32 -4 -79 -4 -105 1 -25 4 -53 6 -61 3 -13 -5 -515 -35 -594
-35 -26 0 -27 2 -15 18 13 15 12 16 -3 4 -9 -7 -15 -21 -13 -30 2 -9 4 -19 4
-22 1 -3 6 2 11 10 5 8 10 11 10 5 0 -16 -14 -31 -35 -38 -18 -6 -19 -6 -3 6
13 11 15 16 6 25 -7 7 -8 12 -3 12 5 0 0 7 -11 16 -10 8 -12 13 -4 9 12 -5 12
-4 -1 7 -22 18 -41 56 -34 68 3 5 0 12 -6 16 -8 5 -9 3 -4 -7 6 -11 5 -11 -5
-2 -14 13 -4 37 12 27 7 -4 8 -2 4 4 -4 6 -13 9 -21 6 -7 -3 -18 4 -25 15 -7
14 -7 21 0 21 5 0 10 4 10 10 0 5 -7 7 -15 4 -17 -7 -19 4 -5 26 9 13 11 13
21 0 9 -13 10 -13 6 2 -3 9 1 19 9 22 10 4 13 2 8 -7 -4 -6 3 -2 16 11 12 13
29 21 37 18 9 -4 11 -2 7 6 -5 8 -2 9 9 5 9 -3 16 -3 14 1 -1 4 0 7 3 7 3 0
18 10 34 23 21 16 32 19 42 12 9 -8 14 -7 20 1 5 8 3 10 -7 4 -12 -7 -12 -6
-1 6 11 12 15 11 27 -4 7 -10 16 -14 19 -9 3 6 -1 13 -10 16 -13 5 -14 9 -4
21 10 12 16 13 27 4 11 -10 12 -8 7 6 -5 13 -4 16 4 11 7 -4 12 -2 12 3 0 6 7
11 15 11 9 0 25 9 37 20 46 43 -18 18 -192 -73z m1299 19 c9 -10 8 -15 -3 -19
-9 -4 -18 -2 -21 3 -4 6 0 10 7 10 9 0 9 3 -2 10 -8 5 -10 10 -4 10 6 0 17 -6
23 -14z m244 -291 c-3 -9 -8 -14 -10 -11 -3 3 -2 9 2 15 9 16 15 13 8 -4z
m-643 -82 c96 -29 117 -37 179 -65 231 -105 428 -316 508 -543 48 -135 56
-184 56 -340 0 -162 -10 -216 -63 -350 -95 -238 -303 -446 -540 -539 -131 -51
-184 -60 -355 -59 -144 0 -169 3 -250 27 -335 101 -574 344 -670 681 -35 122
-38 336 -6 462 56 227 198 441 375 566 84 60 237 132 321 151 39 8 79 17 90
20 45 10 312 2 355 -11z m-1356 -78 c-9 -14 -18 -25 -21 -25 -5 0 5 18 20 38
17 22 18 13 1 -13z m-20 -43 c3 -5 -1 -9 -9 -9 -8 0 -12 4 -9 9 3 4 7 8 9 8 2
0 6 -4 9 -8z m-27 -37 c0 -8 -4 -12 -9 -9 -5 3 -6 10 -3 15 9 13 12 11 12 -6z"/>
<path d="M3849 5191 c-13 -10 -82 -60 -154 -111 -71 -51 -134 -97 -140 -102
-6 -6 12 -9 50 -7 72 3 109 -7 101 -28 -3 -8 -6 -22 -6 -32 0 -9 -20 -31 -44
-48 -37 -26 -76 -72 -160 -188 -14 -20 -14 -20 -37 2 -33 30 -72 43 -129 43
-45 0 -50 -3 -56 -25 -13 -53 25 -79 109 -73 53 3 62 -10 22 -36 -37 -25 -45
-48 -61 -174 -18 -155 -18 -159 10 -185 13 -12 25 -31 27 -42 4 -18 13 -20
109 -23 84 -2 105 0 112 12 9 16 76 39 90 30 4 -3 8 -34 8 -70 l0 -65 103 3
102 3 3 554 c3 613 3 611 -59 562z m-164 -476 c1 -103 1 -104 -20 -91 -11 7
-35 17 -53 20 -17 4 -34 12 -38 17 -7 12 52 108 85 136 14 13 26 23 26 23 0 0
0 -47 0 -105z m-164 -221 c87 -24 87 -25 54 -40 -64 -28 -135 -12 -135 31 0
29 8 30 81 9z"/>
<path d="M3938 4833 c-2 -114 -2 -233 -2 -263 1 -30 2 -196 3 -369 1 -354 -7
-329 89 -261 192 134 237 168 237 181 0 10 -17 16 -55 19 -53 5 -55 6 -58 36
l-3 32 42 -8 c23 -4 46 -15 51 -24 7 -13 28 -16 109 -16 l100 0 10 30 c6 17
15 30 20 30 5 0 16 11 24 24 14 21 15 38 5 133 -16 154 -24 180 -66 205 -47
28 -39 43 23 39 64 -3 113 20 113 52 0 34 -19 47 -66 47 -52 0 -91 -14 -122
-43 l-24 -22 -26 32 c-15 17 -49 61 -75 98 -28 39 -62 73 -82 82 -34 16 -34
17 -37 92 l-3 76 -102 3 -103 3 -2 -208z m255 -35 c11 -13 35 -47 54 -77 38
-58 36 -65 -20 -78 -15 -3 -30 -10 -33 -14 -3 -5 -11 -9 -18 -9 -9 0 -13 27
-14 100 -1 55 1 100 4 100 4 0 16 -10 27 -22z m217 -305 c0 -49 -72 -68 -141
-39 -37 16 -37 17 51 40 74 19 90 19 90 -1z"/>
<path d="M4732 5684 c10 -10 20 -16 22 -13 3 3 -5 11 -17 18 -21 13 -21 12 -5
-5z"/>
<path d="M4786 5662 c-3 -5 1 -9 9 -9 8 0 12 4 9 9 -3 4 -7 8 -9 8 -2 0 -6 -4
-9 -8z"/>
<path d="M4726 5607 c3 -10 9 -15 12 -12 3 3 0 11 -7 18 -10 9 -11 8 -5 -6z"/>
<path d="M3933 5563 c9 -2 23 -2 30 0 6 3 -1 5 -18 5 -16 0 -22 -2 -12 -5z"/>
<path d="M4958 2829 l-58 -29 0 -110 c0 -60 -3 -111 -8 -114 -4 -2 -39 43 -77
101 -40 60 -80 109 -93 114 -31 12 -224 12 -256 -1 l-26 -10 0 -175 0 -176 73
3 72 3 2 115 c1 63 2 123 3 133 1 47 42 2 190 -205 l33 -48 98 0 c134 0 129
-9 129 237 0 148 -3 193 -12 193 -7 -1 -39 -14 -70 -31z"/>
<path d="M3718 2825 c-53 -28 -60 -43 -58 -123 3 -94 0 -123 -9 -118 -4 3 -38
50 -75 105 -58 87 -72 101 -101 107 -45 8 -241 1 -252 -9 -4 -5 -8 -86 -8
-180 l0 -172 70 0 70 0 3 133 c2 98 6 132 15 132 13 0 34 -26 142 -175 33 -44
64 -83 69 -87 6 -4 50 -8 97 -8 128 0 123 -8 127 208 1 99 -1 187 -4 196 -8
22 -31 19 -86 -9z"/>
<path d="M2040 2646 c0 -154 3 -187 16 -200 13 -14 51 -16 265 -16 l250 0 15
36 c8 20 14 52 12 72 l-3 37 -70 0 c-65 0 -69 -1 -75 -25 l-6 -25 -129 0 -130
0 -3 73 -3 72 105 0 c113 0 122 3 151 61 l16 29 -136 0 -135 0 0 35 0 35 -70
0 -70 0 0 -184z"/>
<path d="M4270 2795 l0 -35 70 0 70 0 0 35 0 35 -70 0 -70 0 0 -35z"/>
<path d="M880 2793 c-36 -13 -40 -34 -40 -200 l0 -163 70 0 69 0 3 133 3 132
131 3 c144 3 145 2 137 -55 l-5 -32 -106 -3 -105 -3 57 -42 c49 -37 64 -43
106 -43 l49 0 3 -42 3 -43 70 0 70 0 3 158 c2 156 2 158 -22 182 l-25 25 -228
-1 c-125 0 -235 -3 -243 -6z"/>
<path d="M1416 2792 c-2 -4 7 -27 22 -50 20 -31 33 -42 53 -42 24 0 30 -9 74
-127 27 -71 54 -131 59 -135 20 -14 173 -9 185 5 6 8 33 67 60 133 l49 119 46
3 47 3 -3 47 -3 47 -82 3 c-46 1 -91 -2 -101 -7 -14 -8 -59 -108 -87 -198 -11
-33 -33 -4 -69 88 -30 79 -44 102 -63 110 -30 11 -180 12 -187 1z"/>
<path d="M2663 2790 c-37 -15 -43 -42 -43 -184 0 -190 -23 -176 284 -176 209
0 247 2 260 16 13 13 16 42 16 163 0 200 21 185 -269 188 -124 1 -236 -2 -248
-7z m372 -180 l0 -85 -130 0 -130 0 -3 74 c-2 41 -1 80 2 88 5 11 32 13 133
11 l128 -3 0 -85z"/>
<path d="M3840 2631 c0 -141 3 -172 16 -185 13 -13 46 -16 200 -16 l184 0 0
45 0 44 -127 3 -128 3 -3 138 -3 137 -69 0 -70 0 0 -169z"/>
<path d="M5110 2793 c-35 -12 -40 -35 -40 -174 0 -76 4 -149 10 -163 l10 -26
239 0 239 0 21 34 c12 18 21 38 21 45 0 8 -56 11 -194 11 -168 0 -195 2 -200
16 -3 9 -6 18 -6 20 0 2 77 4 171 4 l170 0 30 32 c16 18 29 40 29 50 0 17 -15
18 -201 18 -186 0 -200 1 -197 18 3 15 21 17 179 20 l176 2 22 40 c12 22 19
44 16 50 -6 10 -466 13 -495 3z"/>
<path d="M5843 2785 c-22 -16 -23 -21 -23 -186 l0 -169 70 0 69 0 3 133 3 132
130 0 130 0 3 -42 3 -42 -88 -3 c-103 -4 -115 -17 -54 -60 30 -22 51 -28 90
-28 l50 0 3 -42 3 -43 70 0 70 0 0 162 c0 142 -2 165 -18 180 -16 16 -43 18
-255 21 -204 2 -240 1 -259 -13z"/>
<path d="M6406 2792 c-2 -4 7 -27 22 -50 l27 -41 104 -3 104 -3 -126 -125
c-70 -68 -127 -128 -127 -132 0 -4 115 -8 255 -8 140 0 255 4 255 9 0 4 -10
23 -23 42 l-23 34 -109 3 -109 3 128 128 c74 75 126 133 122 140 -8 13 -492
16 -500 3z"/>
<path d="M4275 2717 c-3 -7 -4 -74 -3 -148 l3 -134 65 0 65 0 0 145 0 145 -63
3 c-45 2 -64 -1 -67 -11z"/>
<path d="M5652 2478 l3 -43 62 -3 62 -3 6 35 c4 19 4 39 0 45 -3 6 -35 11 -71
11 l-65 0 3 -42z"/>
</g>
</svg>
